<!DOCTYPE svg PUBLIC "-//W3C//DTD SVG 1.1//EN" "http://www.w3.org/Graphics/SVG/1.1/DTD/svg11.dtd">
<!-- Uploaded to: SVG Repo, www.svgrepo.com, Transformed by: SVG Repo Mixer Tools -->
<svg fill="#6afde4" width="256px" height="256px" viewBox="0 0 48 48" style="fill-rule:evenodd;clip-rule:evenodd;stroke-linejoin:round;stroke-miterlimit:1.41421;" version="1.1" xml:space="preserve" xmlns="http://www.w3.org/2000/svg" xmlns:serif="http://www.serif.com/" xmlns:xlink="http://www.w3.org/1999/xlink" stroke="#6afde4">
<g id="SVGRepo_bgCarrier" stroke-width="0"/>
<g id="SVGRepo_tracerCarrier" stroke-linecap="round" stroke-linejoin="round"/>
<g id="SVGRepo_iconCarrier"> <g id="play_wave_lines_trackbar"> <g id="window"> <path d="M3.745,35.218L3.745,12.289C3.745,10.618 5.101,9.263 6.771,9.263L41.42,9.263C43.088,9.263 44.448,10.616 44.448,12.289L44.448,35.218C44.448,36.888 43.091,38.244 41.42,38.244L6.771,38.244C5.101,38.244 3.745,36.888 3.745,35.218ZM14.144,36.177L21.919,11.178L6.771,11.178C6.158,11.178 5.661,11.676 5.661,12.289L5.661,35.218C5.661,35.831 6.158,36.329 6.771,36.329L14.119,36.329C14.119,36.28 14.127,36.229 14.144,36.177ZM42.534,35.218L42.534,12.289C42.534,11.679 42.036,11.178 41.42,11.178L23.033,11.178L15.211,36.329L41.42,36.329C42.034,36.329 42.534,35.831 42.534,35.218Z" id="window1"/> <path d="M7.107,13.102C7.107,12.596 7.52,12.183 8.026,12.183C8.533,12.183 8.944,12.596 8.944,13.102C8.944,13.606 8.533,14.019 8.026,14.019C7.52,14.019 7.107,13.606 7.107,13.102ZM9.707,13.102C9.707,12.596 10.119,12.183 10.625,12.183C11.131,12.183 11.544,12.596 11.544,13.102C11.544,13.606 11.131,14.019 10.625,14.019C10.119,14.019 9.707,13.606 9.707,13.102ZM12.306,13.102C12.306,12.596 12.718,12.183 13.223,12.183C13.729,12.183 14.142,12.596 14.142,13.102C14.142,13.606 13.729,14.019 13.223,14.019C12.718,14.019 12.306,13.606 12.306,13.102Z" id="window-actions"/> </g> <g id="trackbar"> <path d="M19.886,33.16C19.886,32.868 20.124,32.628 20.417,32.628L39.967,32.628C40.259,32.628 40.499,32.868 40.499,33.16C40.499,33.453 40.259,33.692 39.967,33.692L20.417,33.692C20.124,33.692 19.886,33.453 19.886,33.16Z" id="line"/> <path d="M25.156,30.875C26.342,30.875 27.309,31.842 27.309,33.028C27.309,34.214 26.342,35.181 25.156,35.181C23.97,35.181 23.003,34.214 23.003,33.028C23.003,31.842 23.97,30.875 25.156,30.875Z" id="position"/> </g> <path d="M13.859,24.843L9.308,27.473C8.932,27.69 8.625,27.514 8.625,27.078L8.624,21.821C8.624,21.386 8.931,21.209 9.308,21.427L13.859,24.055C14.236,24.272 14.236,24.626 13.859,24.843Z" id="play"/> <path d="M21.8,28.38L21.8,21.837L22.846,21.837L22.846,28.38L21.8,28.38ZM23.373,28.38L23.373,23.752L24.422,23.752L24.422,28.38L23.373,28.38ZM24.947,28.38L24.947,21.075L25.993,21.075L25.993,28.38L24.947,28.38ZM26.523,28.38L26.523,23.007L27.567,23.007L27.567,28.38L26.523,28.38ZM28.098,28.38L28.098,25.399L29.138,25.399L29.138,28.38L28.098,28.38ZM29.668,28.38L29.668,21.071L30.712,21.071L30.712,28.38L29.668,28.38ZM31.243,28.38L31.243,25.097L32.287,25.097L32.287,28.38L31.243,28.38ZM32.815,28.38L32.815,17.049L33.86,17.049L33.86,28.38L32.815,28.38ZM34.39,28.38L34.39,23.752L35.434,23.752L35.434,28.38L34.39,28.38ZM35.962,28.38L35.962,21.075L37.007,21.075L37.007,28.38L35.962,28.38ZM37.537,28.38L37.537,23.007L38.581,23.007L38.581,28.38L37.537,28.38Z" id="wave-lines"/> </g> </g>
</svg>